<svg width="274" height="64" viewBox="0 0 274 64" fill="none" xmlns="http://www.w3.org/2000/svg">
<path d="M75.6775 37.8266C73.9975 37.8266 72.5495 37.4666 71.3335 36.7466C70.1175 36.0106 69.1815 34.9946 68.5255 33.6986C67.8695 32.3866 67.5415 30.8826 67.5415 29.1866C67.5415 27.4586 67.8695 25.9466 68.5255 24.6506C69.1815 23.3386 70.1175 22.3146 71.3335 21.5786C72.5495 20.8266 73.9975 20.4506 75.6775 20.4506C77.7575 20.4506 79.4535 20.9706 80.7655 22.0106C82.0935 23.0506 82.9175 24.5146 83.2375 26.4026H79.3015C79.1095 25.5546 78.7015 24.8986 78.0775 24.4346C77.4535 23.9546 76.6455 23.7146 75.6535 23.7146C74.7095 23.7146 73.9015 23.9386 73.2295 24.3866C72.5735 24.8346 72.0695 25.4666 71.7175 26.2826C71.3815 27.0826 71.2135 28.0506 71.2135 29.1866C71.2135 30.2906 71.3815 31.2506 71.7175 32.0666C72.0695 32.8666 72.5735 33.4906 73.2295 33.9386C73.9015 34.3706 74.7095 34.5866 75.6535 34.5866C76.6455 34.5866 77.4455 34.3786 78.0535 33.9626C78.6775 33.5306 79.0935 32.9146 79.3015 32.1146H83.2375C82.9175 33.8906 82.0935 35.2906 80.7655 36.3146C79.4535 37.3226 77.7575 37.8266 75.6775 37.8266ZM85.8809 37.5386V20.2586H89.4809V37.5386H85.8809ZM98.4155 37.8266C97.2475 37.8266 96.1995 37.5546 95.2715 37.0106C94.3435 36.4666 93.6075 35.7226 93.0635 34.7786C92.5195 33.8186 92.2475 32.7306 92.2475 31.5146C92.2475 30.2666 92.5195 29.1706 93.0635 28.2266C93.6075 27.2666 94.3435 26.5146 95.2715 25.9706C96.2155 25.4266 97.2635 25.1546 98.4155 25.1546C99.5995 25.1546 100.655 25.4266 101.583 25.9706C102.511 26.5146 103.247 27.2666 103.791 28.2266C104.335 29.1706 104.607 30.2586 104.607 31.4906C104.607 32.7226 104.335 33.8186 103.791 34.7786C103.247 35.7226 102.511 36.4666 101.583 37.0106C100.655 37.5546 99.5995 37.8266 98.4155 37.8266ZM98.4155 34.7066C98.8955 34.7066 99.3195 34.5866 99.6875 34.3466C100.071 34.1066 100.375 33.7466 100.599 33.2666C100.823 32.7866 100.935 32.1946 100.935 31.4906C100.935 30.7866 100.823 30.1946 100.599 29.7146C100.375 29.2346 100.079 28.8746 99.7115 28.6346C99.3435 28.3946 98.9195 28.2746 98.4395 28.2746C97.9595 28.2746 97.5275 28.3946 97.1435 28.6346C96.7755 28.8746 96.4795 29.2346 96.2555 29.7146C96.0315 30.1946 95.9195 30.7866 95.9195 31.4906C95.9195 32.1946 96.0315 32.7866 96.2555 33.2666C96.4795 33.7466 96.7755 34.1066 97.1435 34.3466C97.5275 34.5866 97.9515 34.7066 98.4155 34.7066ZM111.933 37.8266C110.925 37.8266 110.069 37.6186 109.365 37.2026C108.677 36.7866 108.149 36.1786 107.781 35.3786C107.429 34.5626 107.253 33.5706 107.253 32.4026V25.4426H110.853V32.0426C110.853 32.9386 111.037 33.6266 111.405 34.1066C111.773 34.5706 112.365 34.8026 113.181 34.8026C113.677 34.8026 114.117 34.6906 114.501 34.4666C114.901 34.2426 115.205 33.9146 115.413 33.4826C115.637 33.0506 115.749 32.5226 115.749 31.8986V25.4426H119.349V37.5386H116.205L115.917 35.6186C115.565 36.2746 115.053 36.8106 114.381 37.2266C113.709 37.6266 112.893 37.8266 111.933 37.8266ZM127.843 37.8266C126.771 37.8266 125.795 37.5546 124.915 37.0106C124.051 36.4666 123.363 35.7226 122.851 34.7786C122.355 33.8186 122.107 32.7306 122.107 31.5146C122.107 30.2826 122.363 29.1946 122.875 28.2506C123.387 27.2906 124.083 26.5386 124.963 25.9946C125.859 25.4346 126.851 25.1546 127.939 25.1546C128.771 25.1546 129.499 25.3066 130.123 25.6106C130.747 25.8986 131.259 26.3226 131.659 26.8826V20.2586H135.259V37.5386H132.067L131.659 35.9786C131.419 36.3146 131.123 36.6266 130.771 36.9146C130.435 37.1866 130.027 37.4026 129.547 37.5626C129.067 37.7386 128.499 37.8266 127.843 37.8266ZM128.779 34.6826C129.371 34.6826 129.891 34.5466 130.339 34.2746C130.803 34.0026 131.155 33.6266 131.395 33.1466C131.651 32.6666 131.779 32.1146 131.779 31.4906C131.779 30.8666 131.651 30.3146 131.395 29.8346C131.155 29.3546 130.803 28.9786 130.339 28.7066C129.891 28.4346 129.371 28.2986 128.779 28.2986C128.203 28.2986 127.683 28.4346 127.219 28.7066C126.771 28.9786 126.419 29.3546 126.163 29.8346C125.907 30.3146 125.779 30.8586 125.779 31.4666C125.779 32.0906 125.907 32.6506 126.163 33.1466C126.419 33.6266 126.771 34.0026 127.219 34.2746C127.683 34.5466 128.203 34.6826 128.779 34.6826ZM144.333 37.8266C143.133 37.8266 142.045 37.6266 141.069 37.2266C140.109 36.8106 139.349 36.2026 138.789 35.4026C138.229 34.6026 137.925 33.6186 137.877 32.4506H141.717C141.733 32.9146 141.853 33.3226 142.077 33.6746C142.301 34.0266 142.605 34.3066 142.989 34.5146C143.373 34.7066 143.821 34.8026 144.333 34.8026C144.765 34.8026 145.141 34.7386 145.461 34.6106C145.797 34.4666 146.061 34.2666 146.253 34.0106C146.445 33.7386 146.541 33.4026 146.541 33.0026C146.541 32.5866 146.429 32.2346 146.205 31.9466C145.981 31.6426 145.677 31.3866 145.293 31.1786C144.909 30.9546 144.461 30.7546 143.949 30.5786C143.453 30.3866 142.917 30.2026 142.341 30.0266C141.013 29.5946 139.989 29.0106 139.269 28.2746C138.565 27.5386 138.213 26.5546 138.213 25.3226C138.213 24.2986 138.461 23.4266 138.957 22.7066C139.469 21.9706 140.165 21.4106 141.045 21.0266C141.925 20.6426 142.925 20.4506 144.045 20.4506C145.197 20.4506 146.205 20.6506 147.069 21.0506C147.949 21.4346 148.645 22.0026 149.157 22.7546C149.685 23.4906 149.965 24.3706 149.997 25.3946H146.133C146.117 25.0426 146.013 24.7226 145.821 24.4346C145.645 24.1466 145.397 23.9146 145.077 23.7386C144.773 23.5626 144.413 23.4746 143.997 23.4746C143.629 23.4586 143.293 23.5146 142.989 23.6426C142.685 23.7546 142.445 23.9386 142.269 24.1946C142.093 24.4346 142.005 24.7386 142.005 25.1066C142.005 25.4586 142.093 25.7706 142.269 26.0426C142.461 26.2986 142.717 26.5226 143.037 26.7146C143.373 26.8906 143.757 27.0586 144.189 27.2186C144.637 27.3786 145.125 27.5386 145.653 27.6986C146.501 27.9866 147.277 28.3306 147.981 28.7306C148.701 29.1146 149.277 29.6266 149.709 30.2666C150.157 30.8906 150.381 31.7226 150.381 32.7626C150.381 33.6746 150.141 34.5146 149.661 35.2826C149.197 36.0506 148.517 36.6666 147.621 37.1306C146.741 37.5946 145.645 37.8266 144.333 37.8266ZM159.029 37.8266C157.781 37.8266 156.677 37.5546 155.717 37.0106C154.773 36.4666 154.029 35.7226 153.485 34.7786C152.957 33.8346 152.693 32.7546 152.693 31.5386C152.693 30.2906 152.957 29.1946 153.485 28.2506C154.029 27.2906 154.773 26.5386 155.717 25.9946C156.677 25.4346 157.781 25.1546 159.029 25.1546C160.613 25.1546 161.941 25.5706 163.013 26.4026C164.101 27.2346 164.789 28.3946 165.077 29.8826H161.261C161.117 29.3706 160.845 28.9706 160.445 28.6826C160.045 28.3946 159.565 28.2506 159.005 28.2506C158.477 28.2506 158.013 28.3866 157.613 28.6586C157.229 28.9146 156.925 29.2906 156.701 29.7866C156.477 30.2666 156.365 30.8346 156.365 31.4906C156.365 31.9866 156.429 32.4346 156.557 32.8346C156.685 33.2346 156.861 33.5786 157.085 33.8666C157.325 34.1546 157.605 34.3786 157.925 34.5386C158.245 34.6826 158.605 34.7546 159.005 34.7546C159.389 34.7546 159.725 34.6906 160.013 34.5626C160.317 34.4346 160.573 34.2506 160.781 34.0106C161.005 33.7706 161.165 33.4746 161.261 33.1226H165.077C164.789 34.5626 164.101 35.7066 163.013 36.5546C161.925 37.4026 160.597 37.8266 159.029 37.8266ZM173.673 37.8266C172.505 37.8266 171.457 37.5546 170.529 37.0106C169.601 36.4666 168.865 35.7226 168.321 34.7786C167.777 33.8186 167.505 32.7306 167.505 31.5146C167.505 30.2666 167.777 29.1706 168.321 28.2266C168.865 27.2666 169.601 26.5146 170.529 25.9706C171.473 25.4266 172.521 25.1546 173.673 25.1546C174.857 25.1546 175.913 25.4266 176.841 25.9706C177.769 26.5146 178.505 27.2666 179.049 28.2266C179.593 29.1706 179.865 30.2586 179.865 31.4906C179.865 32.7226 179.593 33.8186 179.049 34.7786C178.505 35.7226 177.769 36.4666 176.841 37.0106C175.913 37.5546 174.857 37.8266 173.673 37.8266ZM173.673 34.7066C174.153 34.7066 174.577 34.5866 174.945 34.3466C175.329 34.1066 175.633 33.7466 175.857 33.2666C176.081 32.7866 176.193 32.1946 176.193 31.4906C176.193 30.7866 176.081 30.1946 175.857 29.7146C175.633 29.2346 175.337 28.8746 174.969 28.6346C174.601 28.3946 174.177 28.2746 173.697 28.2746C173.217 28.2746 172.785 28.3946 172.401 28.6346C172.033 28.8746 171.737 29.2346 171.513 29.7146C171.289 30.1946 171.177 30.7866 171.177 31.4906C171.177 32.1946 171.289 32.7866 171.513 33.2666C171.737 33.7466 172.033 34.1066 172.401 34.3466C172.785 34.5866 173.209 34.7066 173.673 34.7066ZM182.631 42.8186V25.4426H185.823L186.231 27.0266C186.487 26.6906 186.783 26.3786 187.119 26.0906C187.455 25.8026 187.855 25.5786 188.319 25.4186C188.799 25.2426 189.359 25.1546 189.999 25.1546C191.119 25.1546 192.103 25.4346 192.951 25.9946C193.815 26.5546 194.503 27.3146 195.015 28.2746C195.527 29.2186 195.783 30.2986 195.783 31.5146C195.783 32.7306 195.519 33.8186 194.991 34.7786C194.479 35.7226 193.791 36.4666 192.927 37.0106C192.063 37.5546 191.095 37.8266 190.023 37.8266C189.159 37.8266 188.415 37.6746 187.791 37.3706C187.167 37.0666 186.647 36.6426 186.231 36.0986V42.8186H182.631ZM189.111 34.6826C189.687 34.6826 190.199 34.5546 190.647 34.2986C191.111 34.0266 191.471 33.6506 191.727 33.1706C191.983 32.6906 192.111 32.1386 192.111 31.5146C192.111 30.8906 191.983 30.3386 191.727 29.8586C191.471 29.3786 191.111 29.0026 190.647 28.7306C190.199 28.4426 189.687 28.2986 189.111 28.2986C188.519 28.2986 187.991 28.4426 187.527 28.7306C187.079 29.0026 186.727 29.3786 186.471 29.8586C186.215 30.3386 186.087 30.8826 186.087 31.4906C186.087 32.1146 186.215 32.6746 186.471 33.1706C186.727 33.6506 187.079 34.0266 187.527 34.2986C187.991 34.5546 188.519 34.6826 189.111 34.6826ZM204.497 37.8266C203.249 37.8266 202.153 37.5706 201.209 37.0586C200.265 36.5306 199.521 35.8026 198.977 34.8746C198.449 33.9306 198.185 32.8506 198.185 31.6346C198.185 30.3866 198.449 29.2746 198.977 28.2986C199.505 27.3226 200.241 26.5546 201.185 25.9946C202.129 25.4346 203.225 25.1546 204.473 25.1546C205.689 25.1546 206.753 25.4186 207.665 25.9466C208.577 26.4746 209.289 27.1946 209.801 28.1066C210.329 29.0026 210.593 30.0426 210.593 31.2266C210.593 31.3866 210.585 31.5706 210.569 31.7786C210.569 31.9706 210.553 32.1706 210.521 32.3786H200.753V30.2906H206.921C206.889 29.6186 206.641 29.0826 206.177 28.6826C205.729 28.2666 205.169 28.0586 204.497 28.0586C203.985 28.0586 203.521 28.1786 203.105 28.4186C202.689 28.6586 202.353 29.0186 202.097 29.4986C201.857 29.9786 201.737 30.5866 201.737 31.3226V32.0426C201.737 32.6026 201.841 33.0986 202.049 33.5306C202.273 33.9626 202.585 34.2986 202.985 34.5386C203.401 34.7786 203.889 34.8986 204.449 34.8986C204.977 34.8986 205.409 34.7946 205.745 34.5866C206.097 34.3626 206.369 34.0826 206.561 33.7466H210.233C210.009 34.5146 209.625 35.2106 209.081 35.8346C208.537 36.4426 207.873 36.9306 207.089 37.2986C206.305 37.6506 205.441 37.8266 204.497 37.8266Z" fill="#1C1C1C"/>
<path d="M263.753 38.8215C261.803 38.8215 260.136 38.3594 258.749 37.4351C257.363 36.5108 256.288 35.2348 255.524 33.6073C254.781 31.9596 254.409 30.0608 254.409 27.9108C254.409 25.7608 254.781 23.872 255.524 22.2444C256.288 20.5967 257.363 19.3108 258.749 18.3865C260.136 17.4622 261.803 17 263.753 17C265.702 17 267.369 17.4622 268.756 18.3865C270.142 19.3108 271.207 20.5967 271.951 22.2444C272.714 23.872 273.096 25.7608 273.096 27.9108C273.096 30.0608 272.714 31.9596 271.951 33.6073C271.207 35.2348 270.142 36.5108 268.756 37.4351C267.369 38.3594 265.702 38.8215 263.753 38.8215ZM263.753 34.7526C264.697 34.7526 265.521 34.4713 266.224 33.9087C266.947 33.3461 267.5 32.5624 267.882 31.5577C268.284 30.533 268.485 29.3173 268.485 27.9108C268.485 26.5042 268.284 25.2986 267.882 24.2939C267.5 23.2692 266.947 22.4855 266.224 21.943C265.521 21.3804 264.697 21.0991 263.753 21.0991C262.808 21.0991 261.974 21.3804 261.251 21.943C260.548 22.4855 259.995 23.2692 259.593 24.2939C259.211 25.2986 259.02 26.5042 259.02 27.9108C259.02 29.3173 259.211 30.533 259.593 31.5577C259.995 32.5624 260.548 33.3461 261.251 33.9087C261.974 34.4713 262.808 34.7526 263.753 34.7526Z" fill="url(#paint0_linear_3_17)"/>
<path d="M243.958 38.8215C242.351 38.8215 240.994 38.5302 239.889 37.9475C238.784 37.3447 237.9 36.551 237.237 35.5664C236.574 34.5818 236.091 33.4867 235.79 32.2811C235.509 31.0554 235.368 29.8096 235.368 28.5437C235.368 26.1727 235.7 24.1332 236.363 22.4252C237.026 20.6972 237.98 19.361 239.226 18.4166C240.492 17.4722 242.019 17 243.807 17C245.334 17 246.62 17.2914 247.665 17.8741C248.71 18.4568 249.514 19.2203 250.077 20.1647C250.639 21.1091 250.971 22.1138 251.071 23.1788H246.852C246.711 22.375 246.369 21.7622 245.827 21.3402C245.304 20.8981 244.621 20.6771 243.777 20.6771C242.973 20.6771 242.28 20.9283 241.698 21.4306C241.115 21.9129 240.663 22.6362 240.341 23.6007C240.02 24.5652 239.839 25.7608 239.799 27.1874C239.799 27.2075 239.799 27.2376 239.799 27.2778C239.799 27.318 239.799 27.3482 239.799 27.3682C240.1 26.8458 240.512 26.3937 241.034 26.0119C241.557 25.6302 242.14 25.3288 242.783 25.1077C243.426 24.8867 244.089 24.7762 244.772 24.7762C245.937 24.7762 247.022 25.0575 248.027 25.6201C249.032 26.1626 249.835 26.9563 250.438 28.0012C251.061 29.026 251.373 30.2416 251.373 31.6482C251.373 32.9542 251.051 34.1598 250.408 35.265C249.785 36.35 248.911 37.2141 247.786 37.857C246.681 38.5 245.405 38.8215 243.958 38.8215ZM243.717 34.9636C244.36 34.9636 244.933 34.833 245.435 34.5718C245.937 34.2905 246.329 33.9087 246.61 33.4264C246.912 32.9442 247.062 32.4017 247.062 31.7989C247.062 31.1358 246.912 30.5732 246.61 30.111C246.329 29.6288 245.927 29.257 245.405 28.9958C244.902 28.7145 244.32 28.5739 243.657 28.5739C243.014 28.5739 242.441 28.7045 241.939 28.9657C241.436 29.2269 241.034 29.5986 240.733 30.0809C240.432 30.5631 240.281 31.1157 240.281 31.7386C240.281 32.3615 240.432 32.9241 240.733 33.4264C241.034 33.9087 241.436 34.2905 241.939 34.5718C242.461 34.833 243.054 34.9636 243.717 34.9636Z" fill="url(#paint1_linear_3_17)"/>
<path d="M224.686 38.8215C223.299 38.8215 222.023 38.5704 220.858 38.068C219.713 37.5657 218.788 36.8021 218.085 35.7774C217.402 34.7325 217.04 33.4063 217 31.7989H221.4C221.421 32.4218 221.561 32.9844 221.822 33.4867C222.084 33.969 222.455 34.3507 222.938 34.632C223.42 34.9134 224.003 35.054 224.686 35.054C225.309 35.054 225.841 34.9334 226.283 34.6923C226.745 34.4311 227.087 34.0996 227.308 33.6977C227.549 33.2757 227.67 32.7935 227.67 32.251C227.67 31.6281 227.519 31.1056 227.218 30.6837C226.916 30.2416 226.484 29.9101 225.922 29.689C225.359 29.4479 224.706 29.3274 223.962 29.3274H222.395V25.6503H223.962C224.826 25.6503 225.58 25.4493 226.223 25.0474C226.866 24.6255 227.187 23.9825 227.187 23.1185C227.187 22.3951 226.956 21.8325 226.494 21.4306C226.032 21.0087 225.419 20.7977 224.656 20.7977C223.731 20.7977 223.028 21.0689 222.546 21.6115C222.064 22.1339 221.792 22.7668 221.732 23.5103H217.362C217.422 22.1439 217.764 20.9785 218.386 20.014C219.009 19.0294 219.853 18.286 220.918 17.7836C222.003 17.2612 223.249 17 224.656 17C226.143 17 227.408 17.2612 228.453 17.7836C229.498 18.3061 230.282 19.0093 230.804 19.8935C231.347 20.7575 231.618 21.7019 231.618 22.7266C231.618 23.5907 231.457 24.3442 231.136 24.9872C230.814 25.6101 230.392 26.1325 229.87 26.5545C229.347 26.9563 228.795 27.2477 228.212 27.4285C228.996 27.5893 229.669 27.9007 230.232 28.3629C230.814 28.8049 231.266 29.3776 231.588 30.0809C231.909 30.764 232.07 31.5477 232.07 32.4318C232.07 33.5972 231.779 34.6722 231.196 35.6568C230.633 36.6213 229.8 37.3949 228.694 37.9776C227.609 38.5402 226.273 38.8215 224.686 38.8215Z" fill="url(#paint2_linear_3_17)"/>
<path d="M43.4285 53.3334C51.8443 53.3334 58.6667 46.5913 58.6667 38.2745C58.6667 31.683 54.3813 26.0807 48.4136 24.04C47.5656 16.5166 41.1091 10.6667 33.2699 10.6667C24.8541 10.6667 18.0317 17.4088 18.0317 25.7256C18.0317 27.5651 18.3655 29.3275 18.9764 30.9571C18.26 30.8179 17.5196 30.7451 16.7619 30.7451C10.4501 30.7451 5.33334 35.8017 5.33334 42.0393C5.33334 48.2769 10.4501 53.3334 16.7619 53.3334H43.4285Z" fill="url(#paint3_linear_3_17)"/>
<path d="M26.5053 7.87965C24.3052 6.27808 21.5963 5.33325 18.6667 5.33325C11.3029 5.33325 5.33334 11.3028 5.33334 18.6666C5.33334 22.5453 6.98953 26.0371 9.63329 28.4735C11.0065 27.7631 12.4996 27.2519 14.0727 26.9773C14.0456 26.5631 14.0317 26.1457 14.0317 25.7254C14.0317 17.5302 19.236 10.5864 26.5053 7.87965Z" fill="url(#paint4_linear_3_17)"/>
<defs>
<linearGradient id="paint0_linear_3_17" x1="254.811" y1="18.6164" x2="273.787" y2="19.8524" gradientUnits="userSpaceOnUse">
<stop stop-color="#0093FD"/>
<stop offset="1" stop-color="#2A1FBC"/>
</linearGradient>
<linearGradient id="paint1_linear_3_17" x1="235.712" y1="18.6164" x2="251.983" y2="19.524" gradientUnits="userSpaceOnUse">
<stop stop-color="#0093FD"/>
<stop offset="1" stop-color="#2A1FBC"/>
</linearGradient>
<linearGradient id="paint2_linear_3_17" x1="217.324" y1="18.6164" x2="232.65" y2="19.4214" gradientUnits="userSpaceOnUse">
<stop stop-color="#0093FD"/>
<stop offset="1" stop-color="#2A1FBC"/>
</linearGradient>
<linearGradient id="paint3_linear_3_17" x1="6.4803" y1="13.8272" x2="60.3821" y2="18.9517" gradientUnits="userSpaceOnUse">
<stop stop-color="#0093FD"/>
<stop offset="1" stop-color="#2A1FBC"/>
</linearGradient>
<linearGradient id="paint4_linear_3_17" x1="5.78866" y1="7.04735" x2="27.2757" y2="8.54257" gradientUnits="userSpaceOnUse">
<stop stop-color="#0093FD"/>
<stop offset="1" stop-color="#2A1FBC"/>
</linearGradient>
</defs>
</svg>
