<svg width="20" height="20" viewBox="0 0 20 20" fill="none" xmlns="http://www.w3.org/2000/svg">
<path d="M10.312 14.168C9.68667 14.168 9.12667 14.0233 8.632 13.734C8.14667 13.4447 7.75933 13.0293 7.47 12.488C7.18067 11.9373 7.036 11.284 7.036 10.528C7.036 9.772 7.18067 9.12333 7.47 8.582C7.75933 8.03133 8.15133 7.61133 8.646 7.322C9.15 7.03267 9.70533 6.888 10.312 6.888C11.1707 6.888 11.8567 7.10267 12.37 7.532C12.8833 7.96133 13.21 8.53533 13.35 9.254H12.146C12.034 8.87133 11.8193 8.568 11.502 8.344C11.1847 8.11067 10.7833 7.994 10.298 7.994C9.94333 7.994 9.60733 8.08733 9.29 8.274C8.97267 8.46067 8.716 8.74067 8.52 9.114C8.324 9.48733 8.226 9.95867 8.226 10.528C8.226 11.0973 8.324 11.5733 8.52 11.956C8.716 12.3293 8.97267 12.6093 9.29 12.796C9.60733 12.9827 9.94333 13.076 10.298 13.076C10.8113 13.076 11.2173 12.9593 11.516 12.726C11.824 12.4927 12.034 12.1847 12.146 11.802H13.35C13.1727 12.5393 12.8227 13.118 12.3 13.538C11.7867 13.958 11.124 14.168 10.312 14.168Z" fill="#D7D7D7"/>
<circle cx="10" cy="10" r="9.5" stroke="#656879"/>
</svg>
